<?xml version="1.0" standalone="no"?>
<!DOCTYPE svg PUBLIC "-//W3C//DTD SVG 20010904//EN"
 "http://www.w3.org/TR/2001/REC-SVG-20010904/DTD/svg10.dtd">
<svg version="1.0" xmlns="http://www.w3.org/2000/svg"
 width="534.000000pt" height="534.000000pt" viewBox="0 0 534.000000 534.000000"
 preserveAspectRatio="xMidYMid meet">
<metadata>
Created by potrace 1.11, written by Peter Selinger 2001-2013
</metadata>
<g transform="translate(0.000000,534.000000) scale(0.100000,-0.100000)"
fill="#000000" stroke="none">
<path d="M1868 5225 c-2 -2 -39 -6 -82 -10 -43 -4 -88 -8 -100 -11 -11 -2 -38
-6 -61 -10 -74 -10 -239 -52 -315 -80 -539 -194 -811 -590 -767 -1114 29 -342
223 -618 556 -790 l63 -33 -97 -33 c-345 -115 -577 -340 -686 -664 -46 -138
-58 -230 -54 -410 4 -172 7 -195 40 -327 71 -278 243 -510 490 -659 163 -99
425 -187 620 -210 28 -3 56 -7 64 -10 7 -2 52 -7 100 -10 47 -4 88 -8 90 -10
2 -2 4 -153 5 -336 l1 -333 915 1 c797 1 1035 5 1108 18 9 2 42 7 72 11 30 4
64 9 75 11 11 3 36 7 55 10 55 9 137 31 237 64 399 131 666 393 769 755 48
167 65 438 38 595 -41 238 -132 419 -290 575 -129 128 -268 211 -454 271 l-82
27 48 24 c172 87 362 254 444 391 107 181 149 387 126 627 -13 133 -34 211
-85 320 -159 339 -478 554 -962 650 -41 8 -90 15 -107 17 -27 2 -32 6 -33 28
0 14 0 167 0 342 l0 316 -869 0 c-479 -1 -871 -2 -872 -3z m1147 -524 c14 -1
14 -131 0 -132 -5 -1 -291 -3 -635 -4 -344 -1 -630 -3 -636 -4 -9 -1 -12 -140
-12 -528 -1 -291 -1 -550 -1 -576 l-1 -48 -37 7 c-264 47 -431 151 -511 317
-22 45 -43 98 -47 117 -40 210 -18 413 59 545 75 127 244 227 456 269 117 23
138 25 250 32 58 3 106 7 107 8 1 1 990 -2 1008 -3z m10 -989 l0 -322 -355 2
-355 3 -1 315 c0 173 1 318 3 323 3 4 163 6 356 5 l352 -3 0 -323z m800 253
c157 -53 284 -154 339 -270 94 -195 77 -516 -35 -683 -79 -116 -207 -193 -401
-242 -62 -15 -115 -26 -116 -24 -3 2 -5 941 -3 1196 l1 76 83 -18 c45 -10 105
-26 132 -35z m-850 -1095 l51 0 -1 -73 0 -72 -355 0 -355 0 0 70 c0 66 1 70
24 75 14 3 151 4 305 3 155 -1 304 -3 331 -3z m-1244 -28 c0 -9 1 -342 2 -739
1 -476 -1 -723 -8 -724 -5 -1 -12 -1 -15 -1 -13 0 -108 12 -130 17 -14 2 -38
7 -55 11 -54 10 -179 55 -240 86 -265 133 -393 405 -353 751 27 229 111 374
272 471 78 47 204 94 301 112 11 2 31 6 45 9 14 2 48 7 75 11 28 3 51 7 52 8
1 1 13 2 27 4 19 1 26 -3 27 -16z m1294 -1056 l0 -423 -355 1 -355 1 -1 415
c0 228 1 418 3 422 2 4 162 7 356 7 l352 0 0 -423z m874 359 c312 -82 468
-247 506 -535 9 -66 9 -228 1 -285 -39 -281 -221 -478 -521 -564 -193 -55
-264 -60 -950 -58 l-620 2 0 65 0 65 630 2 c347 1 637 2 647 2 15 1 16 54 16
659 1 361 1 666 1 678 1 21 2 21 98 8 53 -8 139 -25 192 -39z"/>
</g>
</svg>
